<?xml version="1.0" encoding="UTF-8"?>
<svg width="11px" height="11px" viewBox="0 0 11 11" version="1.1" xmlns="http://www.w3.org/2000/svg" xmlns:xlink="http://www.w3.org/1999/xlink">
    <!-- Generator: Sketch 46.2 (44496) - http://www.bohemiancoding.com/sketch -->
    <title>Close</title>
    <desc>Created with Sketch.</desc>
    <defs></defs>
    <g id="Template" stroke="none" stroke-width="1" fill="none" fill-rule="evenodd">
        <g id="LG-(-1050-)" transform="translate(-910.000000, -1612.000000)" fill="#FFFFFF">
            <path d="M910.244618,1613.5689 L911.568872,1612.24464 C911.895035,1611.91848 912.423855,1611.91848 912.749829,1612.24446 L915.499973,1614.9946 L918.250117,1612.24446 C918.576091,1611.91848 919.104911,1611.91848 919.431075,1612.24464 L920.755329,1613.5689 C921.081334,1613.8949 921.081576,1614.42379 920.755514,1614.74986 L918.005371,1617.5 L920.755514,1620.25014 C921.081576,1620.57621 921.081334,1621.1051 920.755329,1621.4311 L919.431075,1622.75536 C919.104911,1623.08152 918.576091,1623.08152 918.250117,1622.75554 L915.499973,1620.0054 L912.749829,1622.75554 C912.423855,1623.08152 911.895035,1623.08152 911.568872,1622.75536 L910.244618,1621.4311 C909.918613,1621.1051 909.918371,1620.57621 910.244432,1620.25014 L912.994576,1617.5 L910.244432,1614.74986 C909.918371,1614.42379 909.918613,1613.8949 910.244618,1613.5689 L910.244618,1613.5689 Z" id="Close"></path>
        </g>
    </g>
</svg>