<?xml version="1.0" encoding="UTF-8"?>
<svg width="31px" height="29px" viewBox="0 0 31 29" version="1.1" xmlns="http://www.w3.org/2000/svg" xmlns:xlink="http://www.w3.org/1999/xlink">
    <!-- Generator: Sketch 46.2 (44496) - http://www.bohemiancoding.com/sketch -->
    <title>Fill 115 Copy 2</title>
    <desc>Created with Sketch.</desc>
    <defs></defs>
    <g id="Symbols" stroke="none" stroke-width="1" fill="none" fill-rule="evenodd">
        <g id="BLOQUE-SERVICIOS-CLARO" transform="translate(-882.000000, -65.000000)" fill="#333333">
            <g id="Fill-115-Copy-2" transform="translate(882.000000, 65.000000)">
                <path d="M15.4530118,1.98028571 L18.0474033,1.98028571 L18.0474033,4.85283929 L15.4530118,4.85283929 L15.4530118,1.98028571 Z M23.957423,25.87525 L30.4676147,25.87525 L30.4676147,0.143964286 L4.21202242,0.143964286 L4.21459826,0.150696429 C3.96216541,0.148107143 3.7107629,0.248053571 3.53096889,0.452607143 C3.20074551,0.827535714 3.235777,1.40028571 3.60824425,1.73171429 L12.3341782,9.49076786 L6.16399807,15.8189821 L1.7845457,11.8801607 C1.41362396,11.5466607 0.843331787,11.57825 0.511562899,11.951625 C0.179278841,12.3244821 0.211219324,12.8972321 0.582141063,13.23125 L3.10286338,15.4979107 L3.10286338,25.87525 L11.2260495,25.87525 L11.7571888,27.1372679 C11.7994327,27.2335893 12.193537,28.0859821 13.0698396,28.3733929 C13.226451,28.4246607 13.4222153,28.4645357 13.6483745,28.4645357 C13.9682945,28.4645357 14.3490044,28.3842679 14.7657762,28.1403571 L15.2629144,27.8731429 C15.4473449,28.0657857 15.6874137,28.2501429 15.9975455,28.3666607 C16.1711575,28.4319107 16.392165,28.4842143 16.6569619,28.4842143 C17.0057314,28.4842143 17.4307459,28.3935893 17.924793,28.1206786 L18.3863845,27.8405179 C18.5713302,28.0455893 18.8155204,28.2397857 19.1354404,28.3531964 C19.2905063,28.4080893 19.4831795,28.4505536 19.7088236,28.4505536 C20.0519262,28.4505536 20.4702435,28.3521607 20.9436839,28.0492143 L21.6092823,27.6349286 C21.7617724,27.7612857 21.9415664,27.8721071 22.1543312,27.9415 C22.2872448,27.985 22.4500383,28.0181429 22.6370446,28.0181429 C22.9312062,28.0181429 23.2846122,27.9358036 23.67408,27.6810179 C24.0316073,27.4464286 24.1325805,26.9653393 23.8997241,26.6059464 C23.6668676,26.2465536 23.1882756,26.1450536 22.830233,26.379125 C22.7055621,26.4609464 22.6406508,26.466125 22.6324081,26.4640536 C22.5659513,26.4433393 22.4407652,26.28125 22.3701871,26.1088036 L20.5459733,22.0353393 C20.3708158,21.6443571 19.9133457,21.4693214 19.524393,21.6459107 C19.1354404,21.8219821 18.9618284,22.2818393 19.1369859,22.6733393 L20.7741932,26.3273393 L20.1219892,26.7333393 C19.9205581,26.8622857 19.7464309,26.9208036 19.6516398,26.8892143 C19.5290296,26.8472679 19.4079648,26.6380536 19.3554176,26.4961607 L17.9958864,23.1803214 C17.8330929,22.7841607 17.3818048,22.5951429 16.9866701,22.7582679 C16.5925658,22.9219107 16.4040139,23.3760714 16.5668073,23.77275 L17.6708147,26.4609464 L17.1541001,26.7747679 C16.9753364,26.8736786 16.7239339,26.97725 16.5431096,26.9135536 C16.3648611,26.8493393 16.2376143,26.6199286 16.2072193,26.5448393 L15.3855246,24.4055714 C15.2320043,24.0052679 14.7848375,23.8058929 14.3866118,23.9607321 C13.9883861,24.1150536 13.790046,24.5645536 13.9435664,24.9648571 L14.5344653,26.5028929 L14.0131142,26.7840893 C13.8225016,26.8949107 13.6684661,26.93375 13.552553,26.8969821 C13.4747625,26.8731607 13.4026388,26.8120536 13.3403034,26.7462857 L11.9642868,23.6432857 L11.9127699,23.5215893 L11.8983451,23.4951786 L9.21122319,17.43625 L9.20864734,17.4321071 L8.04281971,18.6159286 L10.4615386,24.06275 L4.90595517,24.06275 L4.90595517,17.1198393 L5.59164522,17.7366071 C5.76371169,17.8914464 5.9785372,17.9675714 6.19284754,17.9675714 C6.42106744,17.9675714 6.64568116,17.8769464 6.81929314,17.7065714 L6.82083865,17.7086429 L6.84711227,17.6817143 L6.86514319,17.6656607 L6.87081005,17.657375 L14.2789414,10.0671429 L14.3103668,10.0381429 L14.3196398,10.0251964 L14.3392162,10.0055179 L14.3361252,10.0029286 C14.6349233,9.628 14.5947401,9.080625 14.2325762,8.75903571 L6.58231536,1.95646429 L13.64992,1.95646429 L13.64992,6.66533929 L19.8504951,6.66533929 L19.8504951,1.95646429 L28.6645229,1.95646429 L28.6645229,24.06275 L24.8270284,24.06275 L22.3063061,18.6319821 L24.4045898,19.2135357 C24.524109,19.2409821 25.5992669,19.46625 26.5028734,18.8334286 C26.903675,18.55275 27.4100862,17.9945 27.5445453,16.92875 C27.5512425,16.8728214 27.5517577,16.8174107 27.5471212,16.7630357 C27.6213055,16.4316071 27.4755127,16.0784286 27.1638354,15.9090893 L19.8417372,11.9324643 L19.8000085,11.9148571 L19.7263393,11.8837857 L19.6439123,11.8615179 L19.6032139,11.850125 L15.4081921,11.1370357 L14.0790558,12.4865714 L19.2194129,13.3601964 L25.9552487,17.0183393 C25.8872464,17.2653571 25.7775154,17.4455714 25.6250253,17.5548393 C25.33447,17.7630179 24.8914245,17.7288393 24.783239,17.7076071 L21.3820928,16.7651071 L20.977685,15.9639821 C20.7839814,15.5812857 20.3177534,15.4290357 19.938589,15.6232321 C19.557879,15.8174286 19.4064193,16.2850536 19.5996077,16.66775 L20.5727621,18.5931429 L20.6021268,18.6356071 L23.1218187,24.06275 L23.1187277,24.06275 L23.957423,25.87525 L23.957423,25.87525 Z" id="Fill-115"></path>
            </g>
        </g>
    </g>
</svg>