<?xml version="1.0" encoding="UTF-8"?>
<svg width="21px" height="21px" viewBox="0 0 21 21" version="1.1" xmlns="http://www.w3.org/2000/svg" xmlns:xlink="http://www.w3.org/1999/xlink">
    <!-- Generator: Sketch 46.2 (44496) - http://www.bohemiancoding.com/sketch -->
    <title>Fill 42 + Fill 43</title>
    <desc>Created with Sketch.</desc>
    <defs></defs>
    <g id="Template" stroke="none" stroke-width="1" fill="none" fill-rule="evenodd">
        <g id="LG-(-1050-)" transform="translate(-120.000000, -45.000000)" fill="#FFFFFF">
            <g id="Fill-42-+-Fill-43" transform="translate(120.000000, 45.000000)">
                <path d="M10.7428989,19.6611692 C10.7497895,19.6611692 10.7960552,19.6728 10.8682427,19.6728 C11.018852,19.6728 11.2695395,19.6220769 11.6071802,19.3800923 C12.402227,18.8428154 13.1805395,18.1934308 13.2865239,17.9811692 L13.2960395,17.9501538 C13.2983364,17.9275385 13.2966958,17.8509692 13.1877583,17.7327231 L10.8078677,15.3060923 L10.7533989,15.2411538 C10.7504458,15.2385692 10.6346177,15.1054615 10.4193677,15.1054615 C10.3580083,15.1054615 10.2907427,15.1161231 10.2195395,15.1368 L8.32888329,15.6921692 C8.10739892,15.7574308 7.86721142,15.6847385 7.72021142,15.5083385 C7.66246142,15.4388769 6.30139892,13.7973231 5.56968017,12.5696308 L5.56114892,12.5563846 C4.73263329,11.3900769 3.78271142,9.48521538 3.74235204,9.40444615 C3.64063329,9.19961538 3.67377392,8.95472308 3.82635204,8.78316923 L5.12868017,7.32124615 C5.37936767,7.03758462 5.25468017,6.80432308 5.25336767,6.80206154 L5.21596142,6.72581538 L3.96055517,3.56773846 C3.90116454,3.43204615 3.82963329,3.402 3.80994579,3.39618462 L3.74727392,3.38907692 C3.53825829,3.39844615 2.61458642,3.82458462 1.80247704,4.30467692 C1.19183642,4.64229231 1.16788329,4.97764615 1.16722704,4.99153846 C1.17510204,5.03709231 1.16952392,4.99509231 1.16591454,5.04129231 C0.999883292,7.22884615 2.05053954,10.1475231 4.12428954,13.2603692 C4.16727392,13.3249846 4.19975829,13.3740923 4.21977392,13.4057538 C4.25258642,13.4532462 4.30278954,13.5301385 4.36907079,13.6328769 C6.95666454,17.6332154 9.22696142,19.1035385 10.6756333,19.6330615 C10.7173052,19.6479231 10.7100864,19.6398462 10.7422427,19.6611692 L10.7428989,19.6611692 L10.7428989,19.6611692 Z M10.8682427,20.8035692 L10.8679145,20.8035692 C10.5653833,20.8035692 10.3527583,20.7289385 10.252352,20.6843538 C7.91314892,19.8207692 5.60774267,17.6529231 3.40044579,14.2402615 C3.33908642,14.1452769 3.29478954,14.0758154 3.26755517,14.0376923 L3.24918017,14.0099077 C3.23375829,13.9853538 3.20455517,13.9417385 3.16386767,13.8806769 C0.926711417,10.5222923 -0.160366708,7.44466154 0.019117667,4.97893846 C0.022070792,4.74567692 0.117227042,3.9396 1.22563329,3.32672308 C1.75785204,3.01204615 3.10218017,2.26153846 3.77811767,2.26153846 C3.82405517,2.26153846 3.86736767,2.26444615 3.90772704,2.26961538 C4.11083642,2.28706154 4.70244579,2.40207692 5.02335204,3.13933846 L6.27285204,6.28190769 C6.46250829,6.64472308 6.59671142,7.38327692 5.99361767,8.06529231 L4.94493017,9.24226154 C5.25041454,9.83284615 5.91191454,11.0721692 6.48744579,11.8872923 L6.52616454,11.9412462 L6.53141454,11.9496462 L6.53699267,11.9577231 L6.57177392,12.0165231 C7.08430517,12.8717077 7.95318017,13.9801846 8.37088329,14.4996923 L9.89305517,14.0525538 C10.0715552,14.0008615 10.2480864,13.9746923 10.4193677,13.9746923 C11.1228677,13.9746923 11.5320395,14.3937231 11.654102,14.5407231 L14.0264458,16.9605692 C14.5251958,17.5017231 14.4831958,18.0677538 14.3706489,18.3507692 C14.168852,18.9274615 13.124102,19.7267538 12.2699927,20.3034462 C11.6957739,20.7150462 11.189477,20.8035692 10.8682427,20.8035692 L10.8682427,20.8035692 Z" id="Fill-42"></path>
                <path d="M17.4309844,10.2515538 L14.1402187,12.7376308 L14.1444844,11.0085231 C11.6362969,10.7293846 9.6796875,8.62970769 9.6796875,6.08644615 C9.6796875,3.35386154 11.9378437,1.13076923 14.713125,1.13076923 C17.4887344,1.13076923 19.7465625,3.35386154 19.7465625,6.08644615 C19.7465625,7.83332308 18.8215781,9.36890769 17.4309844,10.2515538 L17.4309844,10.2515538 Z M14.713125,0 C11.3045625,0 8.53125,2.73032308 8.53125,6.08644615 C8.53125,8.85456923 10.4182969,11.1942923 12.9917813,11.9299385 L12.9917813,13.8797077 C12.9917813,14.0948769 13.1154844,14.2909846 13.311375,14.3866154 C13.3920938,14.4257077 13.4790469,14.4450923 13.566,14.4450923 C13.689375,14.4450923 13.8120938,14.406 13.9141406,14.3294308 L18.1823906,11.1251538 L18.2237344,11.0870308 C19.8358125,9.98921538 20.895,8.15898462 20.895,6.08644615 C20.895,2.73032308 18.1216875,0 14.713125,0 L14.713125,0 Z" id="Fill-43"></path>
            </g>
        </g>
    </g>
</svg>