<?xml version="1.0" encoding="UTF-8"?>
<svg width="25px" height="23px" viewBox="0 0 25 23" version="1.1" xmlns="http://www.w3.org/2000/svg" xmlns:xlink="http://www.w3.org/1999/xlink">
    <!-- Generator: Sketch 46.2 (44496) - http://www.bohemiancoding.com/sketch -->
    <title>Fill 115 Copy</title>
    <desc>Created with Sketch.</desc>
    <defs></defs>
    <g id="Template" stroke="none" stroke-width="1" fill="none" fill-rule="evenodd">
        <g id="LG-(-1050-)" transform="translate(-529.000000, -380.000000)" fill="#FFFFFF">
            <g id="SELECT_TRANSPORTE_HOME" transform="translate(121.000000, 359.000000)">
                <g id="Fill-115-Copy" transform="translate(408.500000, 21.000000)">
                    <path d="M11.9984,1.57057143 L14.0128,1.57057143 L14.0128,3.84880357 L11.9984,3.84880357 L11.9984,1.57057143 Z M18.6016,20.52175 L23.6564,20.52175 L23.6564,0.114178571 L3.2704,0.114178571 L3.2724,0.119517857 C3.0764,0.117464286 2.8812,0.196732143 2.7416,0.358964286 C2.4852,0.656321429 2.5124,1.11057143 2.8016,1.37342857 L9.5768,7.52716071 L4.786,12.5460893 L1.3856,9.42219643 C1.0976,9.15769643 0.6548,9.18275 0.3972,9.478875 C0.1392,9.77458929 0.164,10.2288393 0.452,10.49375 L2.4092,12.2914464 L2.4092,20.52175 L8.7164,20.52175 L9.1288,21.5226607 C9.1616,21.5990536 9.4676,22.2750893 10.148,22.5030357 C10.2696,22.5436964 10.4216,22.5753214 10.5972,22.5753214 C10.8456,22.5753214 11.1412,22.5116607 11.4648,22.3182143 L11.8508,22.1062857 C11.994,22.2590714 12.1804,22.4052857 12.4212,22.4976964 C12.556,22.5494464 12.7276,22.5909286 12.9332,22.5909286 C13.204,22.5909286 13.534,22.5190536 13.9176,22.3026071 L14.276,22.0804107 C14.4196,22.2430536 14.6092,22.3970714 14.8576,22.4870179 C14.978,22.5305536 15.1276,22.5642321 15.3028,22.5642321 C15.5692,22.5642321 15.894,22.4861964 16.2616,22.2459286 L16.7784,21.9173571 C16.8968,22.0175714 17.0364,22.1054643 17.2016,22.1605 C17.3048,22.195 17.4312,22.2212857 17.5764,22.2212857 C17.8048,22.2212857 18.0792,22.1559821 18.3816,21.9539107 C18.6592,21.7678571 18.7376,21.3863036 18.5568,21.1012679 C18.376,20.8162321 18.0044,20.7357321 17.7264,20.921375 C17.6296,20.9862679 17.5792,20.990375 17.5728,20.9887321 C17.5212,20.9723036 17.424,20.84375 17.3692,20.7069821 L15.9528,17.4763036 C15.8168,17.1662143 15.4616,17.0273929 15.1596,17.1674464 C14.8576,17.3070893 14.7228,17.6718036 14.8588,17.9823036 L16.13,20.8803036 L15.6236,21.2023036 C15.4672,21.3045714 15.332,21.3509821 15.2584,21.3259286 C15.1632,21.2926607 15.0692,21.1267321 15.0284,21.0141964 L13.9728,18.3843929 C13.8464,18.0701964 13.496,17.9202857 13.1892,18.0496607 C12.8832,18.1794464 12.7368,18.5396429 12.8632,18.85425 L13.7204,20.9862679 L13.3192,21.2351607 C13.1804,21.3136071 12.9852,21.39575 12.8448,21.3452321 C12.7064,21.2943036 12.6076,21.1123571 12.584,21.0528036 L11.946,19.3561429 C11.8268,19.0386607 11.4796,18.8805357 11.1704,19.0033393 C10.8612,19.1257321 10.7072,19.4822321 10.8264,19.7997143 L11.2852,21.0195357 L10.8804,21.2425536 C10.7324,21.3304464 10.6128,21.36125 10.5228,21.3320893 C10.4624,21.3131964 10.4064,21.2647321 10.358,21.2125714 L9.2896,18.7515714 L9.2496,18.6550536 L9.2384,18.6341071 L7.152,13.82875 L7.15,13.8254643 L6.2448,14.7643571 L8.1228,19.08425 L3.8092,19.08425 L3.8092,13.5778036 L4.3416,14.0669643 C4.4752,14.1897679 4.642,14.2501429 4.8084,14.2501429 C4.9856,14.2501429 5.16,14.1782679 5.2948,14.0431429 L5.296,14.0447857 L5.3164,14.0234286 L5.3304,14.0106964 L5.3348,14.004125 L11.0868,7.98428571 L11.1112,7.96128571 L11.1184,7.95101786 L11.1336,7.93541071 L11.1312,7.93335714 C11.3632,7.636 11.332,7.201875 11.0508,6.94682143 L5.1108,1.55167857 L10.5984,1.55167857 L10.5984,5.28630357 L15.4128,5.28630357 L15.4128,1.55167857 L22.2564,1.55167857 L22.2564,19.08425 L19.2768,19.08425 L17.3196,14.7770893 L18.9488,15.2383214 C19.0416,15.2600893 19.8764,15.43875 20.578,14.9368571 C20.8892,14.71425 21.2824,14.2715 21.3868,13.42625 C21.392,13.3818929 21.3924,13.3379464 21.3888,13.2948214 C21.4464,13.0319643 21.3332,12.7518571 21.0912,12.6175536 L15.406,9.46367857 L15.3736,9.44971429 L15.3164,9.42507143 L15.2524,9.40741071 L15.2208,9.398375 L11.9636,8.83282143 L10.9316,9.90314286 L14.9228,10.5960179 L20.1528,13.4973036 C20.1,13.6932143 20.0148,13.8361429 19.8964,13.9228036 C19.6708,14.0879107 19.3268,14.0608036 19.2428,14.0439643 L16.602,13.2964643 L16.288,12.6610893 C16.1376,12.3575714 15.7756,12.2368214 15.4812,12.3908393 C15.1856,12.5448571 15.068,12.9157321 15.218,13.21925 L15.9736,14.7462857 L15.9964,14.7799643 L17.9528,19.08425 L17.9504,19.08425 L18.6016,20.52175 L18.6016,20.52175 Z" id="Fill-115"></path>
                </g>
            </g>
        </g>
    </g>
</svg>