<?xml version="1.0" encoding="UTF-8"?>
<svg width="19px" height="20px" viewBox="0 0 19 20" version="1.1" xmlns="http://www.w3.org/2000/svg" xmlns:xlink="http://www.w3.org/1999/xlink">
    <!-- Generator: Sketch 46.2 (44496) - http://www.bohemiancoding.com/sketch -->
    <title>Fill 56</title>
    <desc>Created with Sketch.</desc>
    <defs></defs>
    <g id="Template" stroke="none" stroke-width="1" fill="none" fill-rule="evenodd">
        <g id="LG-(-1050-)" transform="translate(-671.000000, -47.000000)" fill="#FFFFFF">
            <path d="M681.611726,65.0941249 L681.611726,55.5869818 L684.744301,53.9521857 L684.744301,56.9065074 L685.880703,56.2896032 L685.880703,53.3589836 L688.863598,51.8024369 L688.863598,60.597218 L681.611726,65.0941249 L681.611726,65.0941249 Z M672.136402,52.0936806 L680.475324,55.6110086 L680.475324,65.1782187 L672.136402,60.6679996 L672.136402,52.0936806 L672.136402,52.0936806 Z M681.026641,54.610325 L673.060135,51.2501453 L676.314467,49.9413343 L683.931935,53.0943641 L681.026641,54.610325 L681.026641,54.610325 Z M680.602276,48.2175741 L688.031751,50.9546806 L685.245941,52.4086264 L677.821662,49.3354694 L680.602276,48.2175741 L680.602276,48.2175741 Z M680.584418,47 L671,50.8533784 L671,61.3452955 L681.049045,66.7802215 L690,61.2297071 L690,50.4689497 L680.584418,47 L680.584418,47 Z" id="Fill-56"></path>
        </g>
    </g>
</svg>