<?xml version="1.0" encoding="UTF-8"?>
<svg width="14px" height="20px" viewBox="0 0 14 20" version="1.1" xmlns="http://www.w3.org/2000/svg" xmlns:xlink="http://www.w3.org/1999/xlink">
    <!-- Generator: Sketch 46.2 (44496) - http://www.bohemiancoding.com/sketch -->
    <title>Fill 22 + Fill 23</title>
    <desc>Created with Sketch.</desc>
    <defs></defs>
    <g id="Template" stroke="none" stroke-width="1" fill="none" fill-rule="evenodd">
        <g id="LG-(-1050-)" transform="translate(-571.000000, -46.000000)" fill="#FFFFFF">
            <g id="Fill-22-+-Fill-23" transform="translate(571.000000, 46.000000)">
                <path d="M6.74784783,1.47882733 C9.58786957,1.47882733 11.8983261,3.61721164 11.8983261,6.24572158 C11.8983261,8.2924186 8.63784783,14.0154804 6.74784783,17.0859484 C4.85784783,14.0154804 1.59782609,8.29326365 1.59782609,6.24572158 C1.59782609,3.61721164 3.90782609,1.47882733 6.74784783,1.47882733 L6.74784783,1.47882733 Z M6.74784783,19.2978516 C7.02952174,19.2978516 7.29065217,19.1605319 7.43491304,18.9361727 C7.4895772,18.8508947 7.58172566,18.7065003 7.70432313,18.5119165 C8.9721266,16.4996888 13.4961522,9.12019533 13.4961522,6.24572158 C13.4961522,2.801744 10.4689565,0 6.74784783,0 C3.02719565,0 0,2.801744 0,6.24572158 C0,9.39815892 5.44082609,17.9690196 6.06078261,18.9361727 C6.20504348,19.1605319 6.46617391,19.2978516 6.74784783,19.2978516 L6.74784783,19.2978516 Z" id="Fill-22"></path>
                <path d="M4.33695652,6.61545652 C4.33695652,5.3591087 5.35865217,4.33695652 6.615,4.33695652 C7.87134783,4.33695652 8.8935,5.3591087 8.8935,6.61545652 C8.8935,7.87180435 7.87134783,8.89395652 6.615,8.89395652 C5.35865217,8.89395652 4.33695652,7.87180435 4.33695652,6.61545652 L4.33695652,6.61545652 Z M10.4913261,6.61545652 C10.4913261,4.47802174 8.75243478,2.73913043 6.615,2.73913043 C4.47756522,2.73913043 2.73913043,4.47802174 2.73913043,6.61545652 C2.73913043,8.7528913 4.47756522,10.4917826 6.615,10.4917826 C8.75243478,10.4917826 10.4913261,8.7528913 10.4913261,6.61545652 L10.4913261,6.61545652 Z" id="Fill-23"></path>
            </g>
        </g>
    </g>
</svg>