<?xml version="1.0" encoding="UTF-8"?>
<svg width="23px" height="28px" viewBox="0 0 23 28" version="1.1" xmlns="http://www.w3.org/2000/svg" xmlns:xlink="http://www.w3.org/1999/xlink">
    <!-- Generator: Sketch 46.2 (44496) - http://www.bohemiancoding.com/sketch -->
    <title>Group Copy 8</title>
    <desc>Created with Sketch.</desc>
    <defs></defs>
    <g id="Template" stroke="none" stroke-width="1" fill="none" fill-rule="evenodd">
        <g id="LG-(-1050-)" transform="translate(-144.000000, -376.000000)" fill="#4CBAFF">
            <g id="SELECT_TRANSPORTE_HOME" transform="translate(121.000000, 359.000000)">
                <g id="Group-Copy-8" transform="translate(23.000000, 17.000000)">
                    <path d="M5.40416364,12.332 L5.40416364,8.51 L17.8835455,8.51 L17.8835455,12.332 L12.0536727,10.3572 C11.9436909,10.3196 11.8307818,10.3116 11.7220545,10.3244 L11.6438545,10.3168 L11.5652364,10.3244 C11.4565091,10.312 11.3440182,10.3196 11.2340364,10.3572 L5.40416364,12.332 L5.40416364,12.332 Z M22.4300182,13.8724 L19.3471818,12.828 L19.3471818,7.81 C19.3471818,7.4236 19.0193273,7.11 18.6153636,7.11 L4.67234545,7.11 C4.26838182,7.11 3.94052727,7.4236 3.94052727,7.81 L3.94052727,12.828 L0.857690909,13.8724 C0.489272727,13.9972 0.288545455,14.3768 0.401454545,14.7344 L3.0452,23.0984 C3.36176364,22.9744 3.70132727,22.906 4.04716364,22.906 C4.20941818,22.906 4.37,22.9228 4.52807273,22.9508 L2.00476364,14.9688 L10.9120364,11.9512 L10.9120364,23.6508 L10.9885636,23.722 L11.6589091,24.4116 L12.2840909,23.7688 L12.3756727,23.6836 L12.3756727,11.9512 L21.2829455,14.9688 L18.7433273,23.0024 C18.9114364,22.9708 19.0824727,22.9528 19.2551818,22.9528 C19.5918182,22.9528 19.9217636,23.018 20.2308,23.1356 L22.8862545,14.7344 C22.9991636,14.3768 22.7984364,13.9972 22.4300182,13.8724 L22.4300182,13.8724 Z" id="Fill-76"></path>
                    <path d="M7.78236364,4.0648 L15.5057636,4.0648 L15.5057636,5.8856 L16.9694,5.8856 L16.9694,3.3648 C16.9694,2.9784 16.6415455,2.6648 16.2375818,2.6648 L12.3756727,2.6648 L12.3756727,0.906 C12.3756727,0.5196 12.0482364,0.206 11.6438545,0.206 C11.2398909,0.206 10.9120364,0.5196 10.9120364,0.906 L10.9120364,2.6648 L7.05054545,2.6648 C6.64658182,2.6648 6.31872727,2.9784 6.31872727,3.3648 L6.31872727,5.8856 L7.78236364,5.8856 L7.78236364,4.0648" id="Fill-77"></path>
                    <path d="M7.46747273,15.8076 C7.55361818,15.8076 7.6406,15.7928 7.72590909,15.7624 L9.31416364,15.1888 C9.69261818,15.0524 9.88330909,14.6484 9.74070909,14.2868 C9.59810909,13.9252 9.17574545,13.7428 8.79770909,13.8792 L7.20903636,14.4524 C6.831,14.5892 6.63989091,14.9928 6.78290909,15.3544 C6.89330909,15.6348 7.17181818,15.8076 7.46747273,15.8076" id="Fill-78"></path>
                    <path d="M15.5622182,15.7624 C15.6471091,15.7928 15.7345091,15.8076 15.8202364,15.8076 C16.1163091,15.8076 16.3948182,15.6348 16.5052182,15.3544 C16.6478182,14.9928 16.4571273,14.5892 16.0786727,14.4524 L14.49,13.8792 C14.1123818,13.7424 13.6896,13.9252 13.5474182,14.2868 C13.4044,14.6484 13.5955091,15.0524 13.9735455,15.1888 L15.5622182,15.7624" id="Fill-79"></path>
                    <path d="M20.3616909,24.518 C20.0744,24.2224 19.6716909,24.0528 19.2560182,24.0528 L19.2556,24.0528 C18.8403455,24.0528 18.4376364,24.2224 18.1511818,24.5176 L16.7778727,25.9304 L16.7101273,25.9304 L15.3372364,24.518 C15.0499455,24.2224 14.6472364,24.0524 14.2315636,24.0524 C13.8163091,24.0524 13.4131818,24.2224 13.1263091,24.5176 L11.6927818,25.992 L11.6254545,25.992 L10.1467636,24.4712 C9.85947273,24.1752 9.45676364,24.006 9.04150909,24.006 C8.62583636,24.006 8.22312727,24.1752 7.93583636,24.4712 L6.57841818,25.8684 L6.51109091,25.868 L5.15283636,24.4712 C4.86554545,24.1752 4.46241818,24.006 4.04716364,24.006 C3.63190909,24.006 3.2292,24.1752 2.94190909,24.4708 L0.968509091,26.5004 C0.693345455,26.7836 0.710072727,27.2268 1.00614545,27.49 C1.30221818,27.7532 1.76514545,27.7372 2.04030909,27.454 L4.01370909,25.4244 L4.08103636,25.4244 L5.43929091,26.8216 C5.72658182,27.1172 6.12970909,27.2868 6.54496364,27.2868 C6.96021818,27.2868 7.36292727,27.1172 7.65021818,26.8216 L9.00805455,25.4244 L9.07496364,25.4244 L10.5536545,26.9452 C10.8409455,27.2412 11.2440727,27.4104 11.6593273,27.4104 L11.6597455,27.4104 C12.075,27.4104 12.4777091,27.2408 12.7641636,26.9456 L14.1981091,25.4712 L14.2654364,25.4712 L15.6387455,26.884 C15.9260364,27.1792 16.3287455,27.3484 16.744,27.3484 C17.1592545,27.3484 17.5619636,27.1792 17.8492545,26.8836 L19.2225636,25.4712 L19.2898909,25.4712 L21.2474,27.4852 C21.3916727,27.6336 21.5873818,27.7084 21.7835091,27.7084 C21.9620727,27.7084 22.1406364,27.6468 22.2815636,27.5212 C22.5776364,27.258 22.5947818,26.8152 22.3196182,26.532 L20.3616909,24.518" id="Fill-80"></path>
                </g>
            </g>
        </g>
    </g>
</svg>