<?xml version="1.0" encoding="UTF-8"?>
<svg width="41px" height="23px" viewBox="0 0 41 23" version="1.1" xmlns="http://www.w3.org/2000/svg" xmlns:xlink="http://www.w3.org/1999/xlink">
    <!-- Generator: Sketch 46.2 (44496) - http://www.bohemiancoding.com/sketch -->
    <title>Group Copy 7</title>
    <desc>Created with Sketch.</desc>
    <defs></defs>
    <g id="Template" stroke="none" stroke-width="1" fill="none" fill-rule="evenodd">
        <g id="LG-(-1050-)" transform="translate(-343.000000, -378.000000)" fill="#FFFFFF">
            <g id="SELECT_TRANSPORTE_HOME" transform="translate(121.000000, 359.000000)">
                <g id="Group-Copy-7" transform="translate(222.000000, 19.000000)">
                    <path d="M20.6830792,21.3489286 C17.3377228,21.3489286 14.616297,18.5955 14.616297,15.2108036 C14.616297,11.6733214 18.1134752,8.21428571 20.7232673,8.21428571 C23.595703,8.21428571 26.7494554,11.8762143 26.7494554,15.2108036 C26.7494554,18.5955 24.0280297,21.3489286 20.6830792,21.3489286 L20.6830792,21.3489286 Z M28.1702475,15.2108036 C28.1702475,12.512 26.6008812,9.78198214 24.4960792,8.18635714 L30.4849208,8.18635714 C30.8770594,8.18635714 31.1953168,7.86435714 31.1953168,7.46760714 C31.1953168,7.07044643 30.8770594,6.74885714 30.4849208,6.74885714 L21.3934752,6.74885714 L21.3934752,0.855928571 C21.3934752,0.459178571 21.0752178,0.137178571 20.6830792,0.137178571 C20.2905347,0.137178571 19.9726832,0.459178571 19.9726832,0.855928571 L19.9726832,6.74885714 L10.8808317,6.74885714 C10.4886931,6.74885714 10.1704356,7.07044643 10.1704356,7.46760714 C10.1704356,7.86435714 10.4886931,8.18635714 10.8808317,8.18635714 L16.9658812,8.18635714 C14.8237327,9.79635714 13.195505,12.5526607 13.195505,15.2108036 C13.195505,15.4974821 13.2145842,15.7796429 13.2454356,16.0585179 L11.0139802,16.0585179 C11.3996238,16.4647143 11.6992079,16.9534643 11.8875644,17.4960179 L13.5454257,17.4960179 C14.5054752,20.5595357 17.3413762,22.7864286 20.6830792,22.7864286 C24.0247822,22.7864286 26.8602772,20.5595357 27.8203267,17.4960179 L29.4785941,17.4960179 C29.6669505,16.9534643 29.9665347,16.4647143 30.3525842,16.0585179 L28.1203168,16.0585179 C28.1511683,15.7796429 28.1702475,15.4974821 28.1702475,15.2108036 L28.1702475,15.2108036 Z" id="Fill-85"></path>
                    <path d="M17.5009109,13.2849643 C17.9738317,11.9181071 19.7615941,11.43675 20.6424851,11.43675 C21.7977921,11.43675 23.438198,11.9431607 23.8729604,13.2849643 L17.5009109,13.2849643 L17.5009109,13.2849643 Z M20.6424851,9.99925 C18.6992475,9.99925 15.9632079,11.2416607 15.9632079,14.0037143 C15.9632079,14.4004643 16.2810594,14.7224643 16.673604,14.7224643 L24.6925545,14.7224643 C25.0846931,14.7224643 25.4029505,14.4004643 25.4029505,14.0037143 C25.4029505,11.3747321 23.007901,9.99925 20.6424851,9.99925 L20.6424851,9.99925 Z" id="Fill-86"></path>
                    <path d="M40.2522574,16.0585179 L36.0130198,16.0585179 C36.3986634,16.4647143 36.6982475,16.9534643 36.886604,17.4960179 L40.2522574,17.4960179 C40.644396,17.4960179 40.9626535,17.1740179 40.9626535,16.7772679 C40.9626535,16.3801071 40.644396,16.0585179 40.2522574,16.0585179" id="Fill-87"></path>
                    <path d="M0.40309901,16.7772679 C0.40309901,17.1740179 0.721356436,17.4960179 1.11349505,17.4960179 L4.47914851,17.4960179 C4.66750495,16.9534643 4.96708911,16.4647143 5.35273267,16.0585179 L1.11349505,16.0585179 C0.721356436,16.0585179 0.40309901,16.3801071 0.40309901,16.7772679" id="Fill-89"></path>
                    <path d="M8.18335644,20.1126786 C7.47214851,20.1126786 6.89327723,19.527 6.89327723,18.8078393 C6.89327723,18.0882679 7.47214851,17.5025893 8.18335644,17.5025893 C8.8949703,17.5025893 9.47343564,18.0882679 9.47343564,18.8078393 C9.47343564,19.527 8.8949703,20.1126786 8.18335644,20.1126786 L8.18335644,20.1126786 Z M8.18335644,16.0650893 C6.68868317,16.0650893 5.47248515,17.2955893 5.47248515,18.8078393 C5.47248515,20.3200893 6.68868317,21.5501786 8.18335644,21.5501786 C9.6780297,21.5501786 10.8942277,20.3200893 10.8942277,18.8078393 C10.8942277,17.2955893 9.6780297,16.0650893 8.18335644,16.0650893 L8.18335644,16.0650893 Z" id="Fill-91"></path>
                    <path d="M33.182802,20.1126786 C32.4715941,20.1126786 31.8927228,19.527 31.8927228,18.8074286 C31.8927228,18.0882679 32.4715941,17.5025893 33.182802,17.5025893 C33.8940099,17.5025893 34.4724752,18.0882679 34.4724752,18.8074286 C34.4724752,19.527 33.8940099,20.1126786 33.182802,20.1126786 L33.182802,20.1126786 Z M33.182802,16.0650893 C31.6881287,16.0650893 30.4719307,17.2951786 30.4719307,18.8074286 C30.4719307,20.3196786 31.6881287,21.5501786 33.182802,21.5501786 C34.6774752,21.5501786 35.8932673,20.3196786 35.8932673,18.8074286 C35.8932673,17.2951786 34.6774752,16.0650893 33.182802,16.0650893 L33.182802,16.0650893 Z" id="Fill-92"></path>
                </g>
            </g>
        </g>
    </g>
</svg>