<?xml version="1.0" encoding="UTF-8"?>
<svg width="90px" height="55px" viewBox="0 0 90 55" version="1.1" xmlns="http://www.w3.org/2000/svg" xmlns:xlink="http://www.w3.org/1999/xlink">
    <!-- Generator: Sketch 46.2 (44496) - http://www.bohemiancoding.com/sketch -->
    <title>Group Copy</title>
    <desc>Created with Sketch.</desc>
    <defs></defs>
    <g id="Template" stroke="none" stroke-width="1" fill="none" fill-rule="evenodd">
        <g id="LG-(-1050-)" transform="translate(-263.000000, -1454.000000)">
            <g id="Group-Copy" transform="translate(263.000000, 1454.000000)">
                <polyline id="Fill-2" fill="#88CDED" points="56.407698 0.536111111 0.852142459 0.536111111 0.852142459 43.1287037 60.1114017 43.1287037 60.1114017 35.7212963 56.407698 35.7212963 56.407698 0.536111111"></polyline>
                <path d="M74.9262165,54.2398148 C70.8419573,54.2398148 67.5188091,50.9166667 67.5188091,46.8324074 L71.2225128,46.8324074 C71.2225128,48.875 72.8836239,50.5361111 74.9262165,50.5361111 C76.9688091,50.5361111 78.6299202,48.875 78.6299202,46.8324074 L82.3336239,46.8324074 C82.3336239,50.9166667 79.0104758,54.2398148 74.9262165,54.2398148" id="Fill-3" fill="#1D1E1C"></path>
                <path d="M15.6669573,54.2398148 C11.582698,54.2398148 8.25954987,50.9166667 8.25954987,46.8324074 L11.9632536,46.8324074 C11.9632536,48.875 13.6243647,50.5361111 15.6669573,50.5361111 C17.7095499,50.5361111 19.370661,48.875 19.370661,46.8324074 L23.0743647,46.8324074 C23.0743647,50.9166667 19.7512165,54.2398148 15.6669573,54.2398148" id="Fill-4" fill="#1D1E1C"></path>
                <path d="M30.4817721,54.2398148 C26.3975128,54.2398148 23.0743647,50.9166667 23.0743647,46.8324074 L26.7780684,46.8324074 C26.7780684,48.875 28.4391795,50.5361111 30.4817721,50.5361111 C32.5243647,50.5361111 34.1854758,48.875 34.1854758,46.8324074 L37.8891795,46.8324074 C37.8891795,50.9166667 34.5660313,54.2398148 30.4817721,54.2398148" id="Fill-5" fill="#1D1E1C"></path>
                <path d="M60.1114017,7.94351852 L82.3336239,7.94351852 L82.3336239,43.1287037 L60.1114017,43.1287037 L60.1114017,7.94351852 Z M89.7410313,22.7583333 L82.3336239,22.7583333 L82.3336239,7.94351852 L89.7410313,22.7583333 Z M82.3336239,22.7583333 L89.7410313,22.7583333 L89.7410313,43.1287037 L82.3336239,43.1287037 L82.3336239,22.7583333 Z" id="Fill-6" fill="#88CDED"></path>
                <polygon id="Fill-9" fill="#FFFFFE" points="0.852142459 13.4990741 45.2965869 13.4990741 45.2965869 17.2027778 0.852142459 17.2027778"></polygon>
                <polyline id="Fill-10" fill="#FFFFFE" points="39.5817721 24.4509259 36.9632536 21.8324074 43.0604758 15.7342593 36.9632536 9.63611111 39.5817721 7.01759259 48.2984388 15.7342593 39.5817721 24.4509259"></polyline>
                <polygon id="Fill-11" fill="#1D1E1C" points="0.852142459 35.7212963 89.7410313 35.7212963 89.7410313 39.425 0.852142459 39.425"></polygon>
                <polyline id="Fill-12" fill="#FFFFFE" points="83.2595499 22.7583333 65.6669573 22.7583333 65.6669573 13.4990741 78.6299202 13.4990741 83.2595499 22.7583333"></polyline>
                <path d="M67.5188091,20.9064815 L80.2632536,20.9064815 L77.4854758,15.3509259 L67.5188091,15.3509259 L67.5188091,20.9064815 L67.5188091,20.9064815 Z M86.2558462,24.6101852 L63.8151054,24.6101852 L63.8151054,11.6472222 L79.7743647,11.6472222 L86.2558462,24.6101852 L86.2558462,24.6101852 Z" id="Fill-13" fill="#1D1E1C"></path>
            </g>
        </g>
    </g>
</svg>