<?xml version="1.0" encoding="UTF-8"?>
<svg width="52px" height="30px" viewBox="0 0 52 30" version="1.1" xmlns="http://www.w3.org/2000/svg" xmlns:xlink="http://www.w3.org/1999/xlink">
    <!-- Generator: Sketch 46.2 (44496) - http://www.bohemiancoding.com/sketch -->
    <title>Group Copy 10</title>
    <desc>Created with Sketch.</desc>
    <defs></defs>
    <g id="Symbols" stroke="none" stroke-width="1" fill="none" fill-rule="evenodd">
        <g id="BLOQUE-SERVICIOS-CLARO" transform="translate(-582.000000, -61.000000)" fill="#333333">
            <g id="Group-Copy-10" transform="translate(582.000000, 61.000000)">
                <path d="M26.1137014,27.6023203 C21.8899764,27.6023203 18.4540035,24.042375 18.4540035,19.6662549 C18.4540035,15.0925961 22.8694131,10.6203618 26.1644414,10.6203618 C29.7910739,10.6203618 33.7728867,15.3549191 33.7728867,19.6662549 C33.7728867,24.042375 30.3369138,27.6023203 26.1137014,27.6023203 L26.1137014,27.6023203 Z M35.566727,19.6662549 C35.566727,16.1769351 33.5853023,12.6472578 30.9278561,10.5842526 L38.489149,10.5842526 C38.9842489,10.5842526 39.3860691,10.1679344 39.3860691,9.6549709 C39.3860691,9.1414764 38.9842489,8.72568924 38.489149,8.72568924 L27.0106215,8.72568924 L27.0106215,1.1066417 C27.0106215,0.593678224 26.6088013,0.177360042 26.1137014,0.177360042 C25.6180889,0.177360042 25.2167812,0.593678224 25.2167812,1.1066417 L25.2167812,8.72568924 L13.7377412,8.72568924 C13.2426413,8.72568924 12.8408211,9.1414764 12.8408211,9.6549709 C12.8408211,10.1679344 13.2426413,10.5842526 13.7377412,10.5842526 L21.4205027,10.5842526 C18.7159042,12.6658435 16.6601632,16.2295059 16.6601632,19.6662549 C16.6601632,20.0369056 16.6842519,20.401715 16.7232039,20.7622763 L13.9058496,20.7622763 C14.3927491,21.2874532 14.7709932,21.9193647 15.0088051,22.6208396 L17.1019605,22.6208396 C18.3140839,26.5817035 21.8945891,29.4608836 26.1137014,29.4608836 C30.3328136,29.4608836 33.9128063,26.5817035 35.1249297,22.6208396 L37.2185976,22.6208396 C37.4564095,21.9193647 37.8346536,21.2874532 38.3220656,20.7622763 L35.5036863,20.7622763 C35.5426383,20.401715 35.566727,20.0369056 35.566727,19.6662549 L35.566727,19.6662549 Z" id="Fill-85"></path>
                <path d="M22.0960117,17.1763111 C22.6931043,15.4090829 24.9502678,14.7867297 26.0624488,14.7867297 C27.5210972,14.7867297 29.5922139,15.441475 30.141129,17.1763111 L22.0960117,17.1763111 L22.0960117,17.1763111 Z M26.0624488,12.9281664 C23.6089878,12.9281664 20.154564,14.5344961 20.154564,18.1055928 C20.154564,18.6185562 20.5558717,19.0348744 21.0514842,19.0348744 L31.1759186,19.0348744 C31.6710185,19.0348744 32.0728387,18.6185562 32.0728387,18.1055928 C32.0728387,14.706546 29.0489365,12.9281664 26.0624488,12.9281664 L26.0624488,12.9281664 Z" id="Fill-86"></path>
                <path d="M50.821032,20.7622763 L45.4687252,20.7622763 C45.9556247,21.2874532 46.3338687,21.9193647 46.5716807,22.6208396 L50.821032,22.6208396 C51.3161319,22.6208396 51.7179521,22.2045214 51.7179521,21.6915579 C51.7179521,21.1780634 51.3161319,20.7622763 50.821032,20.7622763" id="Fill-87"></path>
                <path d="M0.508938106,21.6915579 C0.508938106,22.2045214 0.910758323,22.6208396 1.40585823,22.6208396 L5.65520953,22.6208396 C5.8930215,21.9193647 6.27126553,21.2874532 6.75816502,20.7622763 L1.40585823,20.7622763 C0.910758323,20.7622763 0.508938106,21.1780634 0.508938106,21.6915579" id="Fill-89"></path>
                <path d="M10.3320073,26.0039558 C9.43406216,26.0039558 8.70320038,25.246724 8.70320038,24.3169114 C8.70320038,23.3865677 9.43406216,22.6293359 10.3320073,22.6293359 C11.230465,22.6293359 11.9608143,23.3865677 11.9608143,24.3169114 C11.9608143,25.246724 11.230465,26.0039558 10.3320073,26.0039558 L10.3320073,26.0039558 Z M10.3320073,20.7707726 C8.44488739,20.7707726 6.90936013,22.3617027 6.90936013,24.3169114 C6.90936013,26.27212 8.44488739,27.8625191 10.3320073,27.8625191 C12.2191273,27.8625191 13.7546545,26.27212 13.7546545,24.3169114 C13.7546545,22.3617027 12.2191273,20.7707726 10.3320073,20.7707726 L10.3320073,20.7707726 Z" id="Fill-91"></path>
                <path d="M41.8953954,26.0039558 C40.9974502,26.0039558 40.2665884,25.246724 40.2665884,24.3163803 C40.2665884,23.3865677 40.9974502,22.6293359 41.8953954,22.6293359 C42.7933406,22.6293359 43.5236898,23.3865677 43.5236898,24.3163803 C43.5236898,25.246724 42.7933406,26.0039558 41.8953954,26.0039558 L41.8953954,26.0039558 Z M41.8953954,20.7707726 C40.0082754,20.7707726 38.4727482,22.3611717 38.4727482,24.3163803 C38.4727482,26.2715889 40.0082754,27.8625191 41.8953954,27.8625191 C43.7825153,27.8625191 45.3175301,26.2715889 45.3175301,24.3163803 C45.3175301,22.3611717 43.7825153,20.7707726 41.8953954,20.7707726 L41.8953954,20.7707726 Z" id="Fill-92"></path>
            </g>
        </g>
    </g>
</svg>