<?xml version="1.0" encoding="UTF-8"?>
<svg width="39px" height="25px" viewBox="0 0 39 25" version="1.1" xmlns="http://www.w3.org/2000/svg" xmlns:xlink="http://www.w3.org/1999/xlink">
    <!-- Generator: Sketch 46.2 (44496) - http://www.bohemiancoding.com/sketch -->
    <title>Group</title>
    <desc>Created with Sketch.</desc>
    <defs></defs>
    <g id="Symbols" stroke="none" stroke-width="1" fill="none" fill-rule="evenodd">
        <g id="BLOQUE-SERVICIOS-CLARO" transform="translate(-1179.000000, -67.000000)" fill="#333333">
            <g id="Group" transform="translate(1179.000000, 67.000000)">
                <path d="M23.1902432,21.4812208 C22.6626892,21.6905454 22.2637297,21.7508771 21.839473,21.2535343 L19.3260811,16.837781 C19.0746892,16.3965729 18.5128784,16.2412844 18.0691216,16.4915297 C17.6253649,16.7417749 17.4698919,17.3015479 17.7212838,17.742756 L19.5342568,20.9282679 L19.5653514,20.9823041 L19.5664054,20.9817795 L20.0275541,21.759271 L20.3685405,22.3347827 L20.4207162,22.4223948 C20.493973,22.5094822 20.5667027,22.5944712 20.6420676,22.668443 C21.2618514,23.2843506 21.9274865,23.4763627 22.5193378,23.4763627 C23.1939324,23.4763627 23.771027,23.2334622 24.0709054,23.107028 C24.1230811,23.0849938 24.1657703,23.0676813 24.2058243,23.0524672 L23.849027,22.5010882 L23.1902432,21.4812208" id="Fill-62"></path>
                <path d="M18.6578108,22.5472551 C18.6019459,22.5782078 18.1244595,22.8001234 17.6000676,22.1611324 L17.5900541,22.1432952 L16.0542973,19.4818818 C15.8007973,19.0422476 15.2368784,18.8895823 14.7952297,19.1429752 C14.3530541,19.395319 14.2007432,19.9566658 14.4547703,20.3963 L15.9088378,22.9165898 L15.9467838,22.9821677 L15.9399324,22.9863647 L15.9957973,23.0807968 L16.0353243,23.1468994 C16.7541892,24.1352894 17.6190405,24.4453417 18.348973,24.4453417 C18.837527,24.4453417 19.265473,24.309989 19.5474324,24.1557497 L18.6578108,22.5472551" id="Fill-63"></path>
                <path d="M37.44,14.5409807 C36.7854324,14.5409807 36.2541892,15.0698009 36.2541892,15.7213829 C36.2541892,16.3729649 36.7854324,16.901785 37.44,16.901785 C38.0945676,16.901785 38.6258108,16.3729649 38.6258108,15.7213829 C38.6258108,15.0698009 38.0945676,14.5409807 37.44,14.5409807" id="Fill-64"></path>
                <path d="M12.6918649,22.2120209 L8.62268919,15.2801748 L6.59363514,15.2801748 L6.59363514,4.0579603 L12.5100405,4.0579603 L13.9730676,2.22177917 L6.59363514,2.22177917 L6.59363514,0.0750211149 L0.296716216,0.0750211149 L0.296716216,1.91120225 L4.74904054,1.91120225 L4.74904054,17.6756042 L0.256135135,17.6756042 L0.256135135,19.5117853 L6.59363514,19.5117853 L6.59363514,17.1257991 L7.56968919,17.1257991 L11.1012973,23.1421778 C11.9376892,24.5534141 13.1862162,24.9558001 14.2144459,24.9558001 C14.5796757,24.9552755 14.9143378,24.9033378 15.1957703,24.8288413 L14.1849324,23.1243406 C13.7232568,23.1206682 13.1277162,22.9470179 12.6918649,22.2120209 Z" id="Fill-65"></path>
                <path d="M29.3190405,17.5323821 L23.5918378,6.63700786 L23.5934189,6.61025208 C23.0927432,6.57825006 19.9622027,6.30597063 19.9305811,6.30334752 L19.4978919,6.26557465 L15.6442703,10.1624756 C15.0092027,10.632538 14.4347432,10.8130084 13.9287973,10.6954928 C13.4244324,10.5795511 13.0043919,10.1734927 12.732973,9.82304444 L16.9528784,4.3475523 C18.1755811,2.8177511 19.3234459,2.73538527 19.3403108,2.73328677 L26.0599054,2.72856516 L32.2725,5.43089917 L32.2725,17.5229389 L29.3190405,17.5323821 L29.3190405,17.5323821 Z M34.1170946,3.42683862 L38.5815405,3.42683862 L38.5815405,1.59065748 L32.2725,1.59065748 L32.2725,3.42736324 L26.5005,0.91704132 L26.4983919,0.921238306 L26.4983919,0.892384031 L19.3271351,0.897105639 C19.1226486,0.900253378 17.2796351,0.989439319 15.4993378,3.21698935 L10.5315811,9.66250975 L10.7803378,10.1729681 C10.8741486,10.3655048 11.7484865,12.0673824 13.4950541,12.4807855 C13.7443378,12.5395433 13.9952027,12.5689222 14.2471216,12.5689222 C15.0919459,12.5689222 15.9525811,12.2394588 16.8132162,11.5842045 L20.2030541,8.1699568 C20.7400946,8.21664826 21.6697703,8.29639098 22.4139324,8.35829652 L28.1622162,19.2919682 L28.1558919,19.3029853 C27.8755135,19.8265593 27.5550811,20.2735382 27.2757568,20.4844367 C27.203027,20.5389975 27.1339865,20.5762458 27.0691622,20.5946076 L27.0075,20.6182156 C26.9215946,20.6255604 26.7260676,20.5431945 26.460973,20.2562256 L22.7396351,14.4617626 C22.4655811,14.0341947 21.8948108,13.9093344 21.4658108,14.1826631 C21.0368108,14.4554671 20.9113784,15.023634 21.1854324,15.4506773 L23.1855,18.5643159 L23.3204189,18.7752144 L23.321473,18.7746898 L24.3428514,20.3564287 L24.999,21.3710499 L25.0137568,21.3946579 L25.0827973,21.4707283 L25.1102027,21.5011564 C25.4359054,21.8547525 25.7753108,22.110244 26.1289459,22.2655324 C26.4051081,22.387245 26.6881216,22.4559706 26.9790405,22.4559706 L27.0691622,22.451249 L27.1919595,22.4454782 C27.5661486,22.4077053 27.9060811,22.2697294 28.2149189,22.0677495 C29.1888649,21.4329554 29.8365811,20.163892 30.1680811,19.3659401 L32.2725,19.35912 L32.2725,21.0274217 L38.6215946,21.0274217 L38.6215946,19.1912406 L34.1170946,19.1912406 L34.1170946,3.42683862 L34.1170946,3.42683862 Z" id="Fill-66"></path>
            </g>
        </g>
    </g>
</svg>