<?xml version="1.0" encoding="UTF-8"?>
<svg width="55px" height="75px" viewBox="0 0 55 75" version="1.1" xmlns="http://www.w3.org/2000/svg" xmlns:xlink="http://www.w3.org/1999/xlink">
    <!-- Generator: Sketch 46.2 (44496) - http://www.bohemiancoding.com/sketch -->
    <title>Group Copy 4</title>
    <desc>Created with Sketch.</desc>
    <defs></defs>
    <g id="Template" stroke="none" stroke-width="1" fill="none" fill-rule="evenodd">
        <g id="LG-(-1050-)" transform="translate(-880.000000, -1435.000000)">
            <g id="Group-Copy-4" transform="translate(880.000000, 1435.000000)">
                <polygon id="Fill-93" fill="#88CDED" points="7.12250712 9.97150997 47.008547 9.97150997 47.008547 66.951567 7.12250712 66.951567"></polygon>
                <path d="M2.84900285,71.2250712 L51.2820513,71.2250712 L51.2820513,11.3960114 L2.84900285,11.3960114 L2.84900285,71.2250712 Z M0,8.54700855 L54.1310541,8.54700855 L54.1310541,74.0740741 L0,74.0740741 L0,8.54700855 Z" id="Fill-94" fill="#1D1E1C"></path>
                <path d="M33.1196581,7.12250712 C33.1196581,3.97578348 30.5683761,1.42450142 27.4216524,1.42450142 C24.2749288,1.42450142 21.7236467,3.97578348 21.7236467,7.12250712 L15.6695157,7.12250712 L15.6695157,12.8205128 L38.4615385,12.8205128 L38.4615385,7.12250712 L33.1196581,7.12250712" id="Fill-95" fill="#FFFFFE"></path>
                <path d="M17.0940171,11.3960114 L37.037037,11.3960114 L37.037037,8.54700855 L31.6951567,8.54700855 L31.6951567,7.12250712 C31.6951567,4.76566952 29.77849,2.84900285 27.4216524,2.84900285 C25.0648148,2.84900285 23.1481481,4.76566952 23.1481481,7.12250712 L23.1481481,8.54700855 L17.0940171,8.54700855 L17.0940171,11.3960114 L17.0940171,11.3960114 Z M39.8860399,14.2450142 L14.2450142,14.2450142 L14.2450142,5.6980057 L20.4423077,5.6980057 C21.1039886,2.4508547 23.9821937,0 27.4216524,0 C30.8611111,0 33.7393162,2.4508547 34.4009972,5.6980057 L39.8860399,5.6980057 L39.8860399,14.2450142 L39.8860399,14.2450142 Z" id="Fill-96" fill="#1D1E1C"></path>
                <path d="M28.4900285,7.12250712 C28.4900285,7.90954416 27.8518519,8.54700855 27.0655271,8.54700855 C26.27849,8.54700855 25.6410256,7.90954416 25.6410256,7.12250712 C25.6410256,6.33618234 26.27849,5.6980057 27.0655271,5.6980057 C27.8518519,5.6980057 28.4900285,6.33618234 28.4900285,7.12250712" id="Fill-97" fill="#1D1E1C"></path>
                <polyline id="Fill-98" fill="#1D1E1C" points="25.6994302 45.9964387 19.9430199 40.2393162 21.957265 38.2250712 25.6994302 41.9665242 34.1873219 33.4757835 36.2029915 35.4900285 25.6994302 45.9964387"></polyline>
                <path d="M27.0655271,27.0655271 C19.9964387,27.0655271 14.2450142,32.8169516 14.2450142,39.8860399 C14.2450142,46.9551282 19.9964387,52.7065527 27.0655271,52.7065527 C34.1346154,52.7065527 39.8860399,46.9551282 39.8860399,39.8860399 C39.8860399,32.8169516 34.1346154,27.0655271 27.0655271,27.0655271 L27.0655271,27.0655271 Z M27.0655271,55.5555556 C18.4252137,55.5555556 11.3960114,48.5263533 11.3960114,39.8860399 C11.3960114,31.2457265 18.4252137,24.2165242 27.0655271,24.2165242 C35.7058405,24.2165242 42.7350427,31.2457265 42.7350427,39.8860399 C42.7350427,48.5263533 35.7058405,55.5555556 27.0655271,55.5555556 L27.0655271,55.5555556 Z" id="Fill-99" fill="#FFFFFE"></path>
            </g>
        </g>
    </g>
</svg>