<?xml version="1.0" encoding="UTF-8"?>
<svg width="21px" height="20px" viewBox="0 0 21 20" version="1.1" xmlns="http://www.w3.org/2000/svg" xmlns:xlink="http://www.w3.org/1999/xlink">
    <!-- Generator: Sketch 46.2 (44496) - http://www.bohemiancoding.com/sketch -->
    <title>ICO_CALENDAR</title>
    <desc>Created with Sketch.</desc>
    <defs>
        <polyline id="path-1" points="0 0.448164532 19.5123711 0.448164532 19.5123711 19.9602553 0 19.9602553"></polyline>
        <polygon id="path-3" points="0 0.912740607 19.5123711 0.912740607 19.5123711 20.4248314 0 20.4248314"></polygon>
        <polygon id="path-5" points="0 0.912740607 19.5123711 0.912740607 19.5123711 20.4248314 0 20.4248314"></polygon>
        <polygon id="path-7" points="0 1.40054548 19.5123711 1.40054548 19.5123711 20.9126363 0 20.9126363"></polygon>
    </defs>
    <g id="Template" stroke="none" stroke-width="1" fill="none" fill-rule="evenodd">
        <g id="LG-(-1050-)" transform="translate(-855.000000, -490.000000)">
            <g id="ICO_CALENDAR" transform="translate(855.500000, 489.000000)">
                <g id="Group-3" transform="translate(0.000000, 0.952381)">
                    <mask id="mask-2" fill="white">
                        <use xlink:href="#path-1"></use>
                    </mask>
                    <g id="Clip-2"></g>
                    <path d="M17.7523579,18.7432272 L1.75966123,18.7432272 C1.4735117,18.7432272 1.23171007,18.5043419 1.23171007,18.2216437 L1.23171007,8.49132974 L18.2803091,8.49132974 L18.2803091,18.2216437 C18.2803091,18.5043419 18.0385074,18.7432272 17.7523579,18.7432272 M17.7523579,2.33073323 L15.8788352,2.33073323 L15.8788352,3.54776138 L17.7523579,3.54776138 C18.0385074,3.54776138 18.2803091,3.78664662 18.2803091,4.06934487 L18.2803091,7.27430159 L1.23171007,7.27430159 L1.23171007,4.06934487 C1.23171007,3.78664662 1.4735117,3.54776138 1.75966123,3.54776138 L4.00626942,3.54776138 L4.00626942,5.10416653 C4.00626942,5.44041402 4.2822119,5.7126806 4.62221245,5.7126806 C4.962213,5.7126806 5.23815547,5.44041402 5.23815547,5.10416653 L5.23815547,3.54776138 L5.24202711,3.54776138 L5.24202711,2.33073323 L5.23815547,2.33073323 L5.23815547,1.05667861 C5.23815547,0.720778839 4.962213,0.448164532 4.62221245,0.448164532 C4.2822119,0.448164532 4.00626942,0.720778839 4.00626942,1.05667861 L4.00626942,2.33073323 L1.75966123,2.33073323 C0.791750763,2.33073323 -0.000175983721,3.11310847 -0.000175983721,4.06934487 L-0.000175983721,18.2216437 C-0.000175983721,19.1778801 0.791750763,19.9602553 1.75966123,19.9602553 L17.7523579,19.9602553 C18.7202684,19.9602553 19.5121951,19.1778801 19.5121951,18.2216437 L19.5121951,4.06934487 C19.5121951,3.11310847 18.7202684,2.33073323 17.7523579,2.33073323" id="Fill-1" fill="#333333" mask="url(#mask-2)"></path>
                </g>
                <g id="Group-6" transform="translate(0.000000, 0.487805)">
                    <mask id="mask-4" fill="white">
                        <use xlink:href="#path-3"></use>
                    </mask>
                    <g id="Clip-5"></g>
                    <path d="M13.2455204,5.56888169 C13.2455204,5.90512918 13.5211109,6.17739577 13.8614634,6.17739577 C14.2018159,6.17739577 14.4774064,5.90512918 14.4774064,5.56888169 L14.4774064,1.52104605 C14.4774064,1.185494 14.2018159,0.912531973 13.8614634,0.912531973 C13.5211109,0.912531973 13.2455204,1.185494 13.2455204,1.52104605 L13.2455204,2.79510067 L11.2681673,2.79510067 L11.2681673,4.01212882 L13.2455204,4.01212882 L13.2455204,5.56888169 Z" id="Fill-4" fill="#333333" mask="url(#mask-4)"></path>
                </g>
                <g id="Group-9" transform="translate(0.000000, 0.487805)">
                    <mask id="mask-6" fill="white">
                        <use xlink:href="#path-5"></use>
                    </mask>
                    <g id="Clip-8"></g>
                    <path d="M8.6259477,5.56888169 C8.6259477,5.90512918 8.90189018,6.17739577 9.24189073,6.17739577 C9.58189128,6.17739577 9.85783375,5.90512918 9.85783375,5.56888169 L9.85783375,4.01212882 L9.86029752,4.01212882 L9.86029752,2.79510067 L9.85783375,2.79510067 L9.85783375,1.52104605 C9.85783375,1.185494 9.58189128,0.912531973 9.24189073,0.912531973 C8.90189018,0.912531973 8.6259477,1.185494 8.6259477,1.52104605 L8.6259477,2.79510067 L6.65000247,2.79510067 L6.65000247,4.01212882 L8.6259477,4.01212882 L8.6259477,5.56888169 Z" id="Fill-7" fill="#333333" mask="url(#mask-6)"></path>
                </g>
                <mask id="mask-8" fill="white">
                    <use xlink:href="#path-7"></use>
                </mask>
                <g id="Clip-11"></g>
                <polygon id="Fill-10" fill="#333333" mask="url(#mask-8)" points="4.87158138 15.2777959 3.46371161 15.2777959 3.46371161 13.8869066 4.87158138 13.8869066"></polygon>
                <polygon id="Fill-12" fill="#333333" mask="url(#mask-8)" points="7.67816977 15.2777959 6.2703 15.2777959 6.2703 13.8869066 7.67816977 13.8869066"></polygon>
                <polygon id="Fill-13" fill="#333333" mask="url(#mask-8)" points="10.4858141 15.2777959 9.07794429 15.2777959 9.07794429 13.8869066 10.4858141 13.8869066"></polygon>
                <polygon id="Fill-14" fill="#333333" mask="url(#mask-8)" points="13.2931064 15.2777959 11.8848846 15.2777959 11.8848846 13.8869066 13.2931064 13.8869066"></polygon>
                <polygon id="Fill-15" fill="#333333" mask="url(#mask-8)" points="16.0996948 15.2777959 14.691825 15.2777959 14.691825 13.8869066 16.0996948 13.8869066"></polygon>
                <polygon id="Fill-16" fill="#333333" mask="url(#mask-8)" points="7.67816977 12.5019286 6.2703 12.5019286 6.2703 11.1110393 7.67816977 11.1110393"></polygon>
                <polygon id="Fill-17" fill="#333333" mask="url(#mask-8)" points="10.4858141 12.5019286 9.07794429 12.5019286 9.07794429 11.1110393 10.4858141 11.1110393"></polygon>
                <polygon id="Fill-18" fill="#333333" mask="url(#mask-8)" points="13.2931064 12.5019286 11.8848846 12.5019286 11.8848846 11.1110393 13.2931064 11.1110393"></polygon>
                <polygon id="Fill-19" fill="#333333" mask="url(#mask-8)" points="16.0996948 12.5019286 14.691825 12.5019286 14.691825 11.1110393 16.0996948 11.1110393"></polygon>
                <polygon id="Fill-20" fill="#333333" mask="url(#mask-8)" points="4.87158138 18.0536633 3.46371161 18.0536633 3.46371161 16.662774 4.87158138 16.662774"></polygon>
                <polygon id="Fill-21" fill="#333333" mask="url(#mask-8)" points="7.67816977 18.0536633 6.2703 18.0536633 6.2703 16.662774 7.67816977 16.662774"></polygon>
                <polygon id="Fill-22" fill="#333333" mask="url(#mask-8)" points="10.4858141 18.0536633 9.07794429 18.0536633 9.07794429 16.662774 10.4858141 16.662774"></polygon>
                <polygon id="Fill-23" fill="#333333" mask="url(#mask-8)" points="13.2931064 18.0536633 11.8848846 18.0536633 11.8848846 16.662774 13.2931064 16.662774"></polygon>
            </g>
        </g>
    </g>
</svg>