<?xml version="1.0" encoding="UTF-8"?>
<svg width="16px" height="18px" viewBox="0 0 16 18" version="1.1" xmlns="http://www.w3.org/2000/svg" xmlns:xlink="http://www.w3.org/1999/xlink">
    <!-- Generator: Sketch 46.2 (44496) - http://www.bohemiancoding.com/sketch -->
    <title>Shape Copy 17</title>
    <desc>Created with Sketch.</desc>
    <defs></defs>
    <g id="Template" stroke="none" stroke-width="1" fill="none" fill-rule="evenodd">
        <g id="LG-(-1050-)" transform="translate(-1092.000000, -47.000000)" fill="#FFFFFF">
            <path d="M1093.35388,53.7176755 L1095.61034,53.7176755 C1095.72791,51.5602694 1096.87396,49.2164793 1099.67198,49.2164793 C1102.37094,49.2164793 1103.58469,51.6868571 1103.73362,53.7176755 L1105.99008,53.7176755 C1105.94947,49.8816851 1103.88254,47.0367342 1099.67198,47.0004051 C1095.48872,46.9600144 1093.35388,49.9450918 1093.35388,53.7176755 L1093.35388,53.7176755 Z M1092,55.8705686 L1092,63.5425493 C1092,64.6662688 1092.25295,65 1093.35388,65 L1105.99008,65 C1107.16773,65 1107.34396,64.6845462 1107.34396,63.5425493 L1107.34396,55.8705686 C1107.34396,54.7608392 1107.13637,54.6202614 1105.99008,54.6202614 L1093.35388,54.6202614 C1092.26626,54.6202614 1092,54.819056 1092,55.8705686 L1092,55.8705686 Z M1101.10687,59.0296195 C1101.10687,59.6659426 1100.69619,60.2553312 1100.12756,60.4446486 L1101.02586,62.7435351 L1098.3181,62.7435351 L1099.21617,60.4446486 C1098.64755,60.2551056 1098.23687,59.691892 1098.23687,59.0555689 C1098.23687,58.2612932 1098.87771,57.6073697 1099.67176,57.6073697 C1100.46581,57.6073697 1101.10687,58.2353439 1101.10687,59.0296195 L1101.10687,59.0296195 Z" id="Shape-Copy-17"></path>
        </g>
    </g>
</svg>