<?xml version="1.0" encoding="UTF-8"?>
<svg width="18px" height="22px" viewBox="0 0 18 22" version="1.1" xmlns="http://www.w3.org/2000/svg" xmlns:xlink="http://www.w3.org/1999/xlink">
    <!-- Generator: Sketch 46.2 (44496) - http://www.bohemiancoding.com/sketch -->
    <title>Shape Copy 18</title>
    <desc>Created with Sketch.</desc>
    <defs></defs>
    <g id="Template" stroke="none" stroke-width="1" fill="none" fill-rule="evenodd">
        <g id="LG-(-1050-)" transform="translate(-143.000000, -1788.000000)" fill="#777777">
            <path d="M148.582454,1788.32651 L141.325811,1795.57968 C140.927733,1795.98077 140.925186,1796.62964 141.325811,1797.03096 L154.022158,1809.72592 C154.421162,1810.12701 155.070499,1810.12562 155.472282,1809.72592 L162.72522,1802.4702 C163.126309,1802.07212 163.126309,1801.42325 162.72522,1801.02216 L150.032116,1788.32651 C149.630796,1787.92704 148.981459,1787.92519 148.582454,1788.32651 L148.582454,1788.32651 Z M158.505687,1805.50384 C157.927212,1806.08231 156.9847,1806.08116 156.406225,1805.50222 C155.826824,1804.92374 155.826824,1803.98424 156.406225,1803.40507 C156.9847,1802.82683 157.924201,1802.82498 158.505687,1803.40415 C159.084394,1803.98424 159.084394,1804.92652 158.505687,1805.50384 L158.505687,1805.50384 Z M158.757641,1799.42429 L152.427299,1805.75579 L143.419947,1796.74983 L149.751215,1790.41902 L158.757641,1799.42429 L158.757641,1799.42429 Z" id="Shape-Copy-18" transform="translate(152.026167, 1799.026214) rotate(-330.000000) translate(-152.026167, -1799.026214) "></path>
        </g>
    </g>
</svg>