<?xml version="1.0" encoding="UTF-8"?>
<svg width="13px" height="18px" viewBox="0 0 13 18" version="1.1" xmlns="http://www.w3.org/2000/svg" xmlns:xlink="http://www.w3.org/1999/xlink">
    <!-- Generator: Sketch 46.2 (44496) - http://www.bohemiancoding.com/sketch -->
    <title>Shape Copy 16</title>
    <desc>Created with Sketch.</desc>
    <defs></defs>
    <g id="Template" stroke="none" stroke-width="1" fill="none" fill-rule="evenodd">
        <g id="LG-(-1050-)" transform="translate(-122.000000, -2179.000000)" fill="#777777">
            <path d="M128.247872,2179 C124.797445,2179 122,2181.79725 122,2185.24787 C122,2191.01359 128.247872,2197 128.247872,2197 C128.247872,2197 134.495743,2190.40815 134.495743,2185.24768 C134.495743,2181.79725 131.698298,2179 128.247872,2179 L128.247872,2179 Z M128.248065,2187.47736 C126.818036,2187.47736 125.65894,2186.31807 125.65894,2184.88824 C125.65894,2183.4584 126.81823,2182.29911 128.248065,2182.29911 C129.6779,2182.29911 130.836996,2183.4584 130.836996,2184.88824 C130.836996,2186.31807 129.6779,2187.47736 128.248065,2187.47736 L128.248065,2187.47736 Z" id="Shape-Copy-16"></path>
        </g>
    </g>
</svg>