<?xml version="1.0" encoding="UTF-8"?>
<svg width="13px" height="18px" viewBox="0 0 13 18" version="1.1" xmlns="http://www.w3.org/2000/svg" xmlns:xlink="http://www.w3.org/1999/xlink">
    <!-- Generator: Sketch 46.2 (44496) - http://www.bohemiancoding.com/sketch -->
    <title>Shape Copy 20</title>
    <desc>Created with Sketch.</desc>
    <defs></defs>
    <g id="Template" stroke="none" stroke-width="1" fill="none" fill-rule="evenodd">
        <g id="LG-(-1050-)" transform="translate(-185.000000, -543.000000)" fill="#4A4A4A">
            <path d="M191.247872,543 C187.797445,543 185,545.797252 185,549.247872 C185,555.013592 191.247872,561 191.247872,561 C191.247872,561 197.495743,554.408149 197.495743,549.247678 C197.495743,545.797252 194.698298,543 191.247872,543 L191.247872,543 Z M191.248065,551.477363 C189.818036,551.477363 188.65894,550.318074 188.65894,548.888239 C188.65894,547.458404 189.81823,546.299114 191.248065,546.299114 C192.6779,546.299114 193.836996,547.458404 193.836996,548.888239 C193.836996,550.318074 192.6779,551.477363 191.248065,551.477363 L191.248065,551.477363 Z" id="Shape-Copy-20"></path>
        </g>
    </g>
</svg>